<svg width="18" height="14" viewBox="0 0 18 14" fill="none" xmlns="http://www.w3.org/2000/svg">
<path d="M4.03098 9.001H3.96298C3.87169 8.97093 3.79395 8.9096 3.74346 8.82783C3.69297 8.74605 3.67297 8.64908 3.68698 8.554C3.81478 7.92312 4.11379 7.33961 4.55124 6.86741C4.98869 6.39521 5.54769 6.05255 6.16698 5.877C6.20873 5.86426 6.2526 5.85994 6.29604 5.86427C6.33948 5.86861 6.38162 5.88152 6.42004 5.90227C6.45845 5.92301 6.49237 5.95116 6.51982 5.9851C6.54727 6.01905 6.56772 6.0581 6.57998 6.1C6.60654 6.18678 6.6001 6.28032 6.56189 6.36264C6.52369 6.44496 6.45641 6.51026 6.37298 6.546C5.87022 6.69377 5.41494 6.97067 5.05246 7.34911C4.68998 7.72755 4.43296 8.19434 4.30698 8.703C4.30474 8.77763 4.27556 8.84893 4.22482 8.90372C4.17408 8.9585 4.10522 8.99305 4.03098 9.001Z" fill="#7B7B7B"/>
<path d="M16.714 12.2V10.9C16.7207 8.95539 15.9982 7.0789 14.6892 5.64084C13.3802 4.20278 11.5797 3.30761 9.643 3.132V1.8H11.572V0.5H6.429V1.8H8.358V3.132C6.42132 3.30761 4.62081 4.20278 3.31178 5.64084C2.00276 7.0789 1.28031 8.95539 1.287 10.9V12.2H0V13.5H18V12.2H16.714ZM9 4.4C10.4886 4.40772 11.9288 4.92954 13.0768 5.87713C14.2249 6.82472 15.0102 8.13988 15.3 9.6H2.701C2.99077 8.13988 3.77614 6.82472 4.92418 5.87713C6.07223 4.92954 7.51242 4.40772 9.001 4.4H9ZM2.571 10.9H15.429V12.2H2.571V10.9Z" fill="#7B7B7B"/>
</svg>
